# This file uses centimeters as units for non-parametric coordinates.

mtllib LEG1.mtl
g default
v 0.023321 -0.405059 0.258516
v 0.071714 -0.405059 0.161730
v 0.023321 -0.350212 0.142372
v 0.023321 -0.366343 0.052038
v 0.162048 -0.405059 0.210122
v 0.120107 -0.350212 0.142373
v 0.136238 -0.405059 0.148824
v 0.062035 -0.405059 -0.022164
v -0.012167 -0.405059 -0.022164
v -0.021846 -0.405059 0.161730
v 0.058808 0.095014 -0.060879
v 0.052356 0.059526 0.106885
v 0.023320 0.014357 0.097205
v 0.013641 -0.127599 -0.102820
v -0.002490 0.030489 0.016550
v 0.081393 -0.088883 0.129468
v 0.016868 -0.201803 0.126242
v -0.025072 -0.201803 0.026229
v 0.091072 -0.201803 0.084301
v 0.094296 -0.256650 0.058491
v 0.020094 -0.224387 0.126242
v 0.045904 -0.205029 -0.022164
v 0.036225 -0.263102 -0.060879
v 0.113654 -0.163088 0.058490
v -0.002489 -0.366343 -0.022165
v 0.049131 -0.366343 -0.022165
v -0.037978 -0.263102 -0.002807
v -0.089597 -0.405059 0.148824
v -0.070240 -0.350212 0.142373
v -0.112180 -0.405059 0.210122
v 0.091071 -0.175993 -0.064105
v 0.029774 -0.088883 -0.164118
v 0.136237 -0.185672 0.032681
v 0.097523 -0.079204 0.145598
v 0.071776 -0.405059 0.161730
v 0.120170 -0.350212 0.142373
v 0.049193 -0.366343 -0.022165
v 0.023383 -0.366343 0.052038
v -0.070177 -0.350212 0.142373
v -0.021783 -0.405059 0.161730
v -0.002427 -0.366343 -0.022165
v 0.023383 -0.350212 0.142372
vt 0.602539 0.828125
vt 0.602539 0.828125
vt 0.602539 0.828125
vt 0.602539 0.828125
vt 0.602539 0.828125
vt 0.602539 0.828125
vt 0.602539 0.828125
vt 0.602539 0.828125
vt 0.602539 0.828125
vt 0.602539 0.828125
vt 0.602539 0.828125
vt 0.602539 0.828125
vt 0.602539 0.828125
vt 0.602539 0.828125
vt 0.602539 0.828125
vt 0.602539 0.828125
vt 0.602539 0.828125
vt 0.602539 0.828125
vt 0.602539 0.828125
vt 0.602539 0.828125
vt 0.602539 0.828125
vt 0.602539 0.828125
vt 0.602539 0.828125
vt 0.602539 0.828125
vt 0.602539 0.828125
vt 0.602539 0.828125
vt 0.602539 0.828125
vt 0.602539 0.828125
vt 0.602539 0.828125
vt 0.602539 0.828125
vt 0.602539 0.828125
vt 0.602539 0.828125
vt 0.602539 0.828125
vt 0.602539 0.828125
vt 0.602539 0.828125
vt 0.602539 0.828125
vt 0.602539 0.828125
vt 0.602539 0.828125
vt 0.602539 0.828125
vt 0.602539 0.828125
vt 0.602539 0.828125
vt 0.602539 0.828125
vt 0.602539 0.828125
vt 0.602539 0.828125
vt 0.602539 0.828125
vt 0.602539 0.828125
vt 0.602539 0.828125
vt 0.602539 0.828125
vt 0.602539 0.828125
vt 0.602539 0.828125
vt 0.602539 0.828125
vt 0.602539 0.828125
vt 0.602539 0.828125
vt 0.602539 0.828125
vt 0.602539 0.828125
vt 0.602539 0.828125
vt 0.602539 0.828125
vt 0.602539 0.828125
vt 0.602539 0.828125
vt 0.602539 0.828125
vt 0.602539 0.828125
vt 0.602539 0.828125
vt 0.602539 0.828125
vt 0.602539 0.828125
vt 0.602539 0.828125
vt 0.602539 0.828125
vt 0.602539 0.828125
vt 0.602539 0.828125
vt 0.602539 0.828125
vt 0.602539 0.828125
vt 0.602539 0.828125
vt 0.602539 0.828125
vt 0.602539 0.828125
vt 0.602539 0.828125
vt 0.602539 0.828125
vt 0.602539 0.828125
vt 0.602539 0.828125
vt 0.602539 0.828125
vt 0.602539 0.828125
vt 0.602539 0.828125
vt 0.602539 0.828125
vt 0.602539 0.828125
vt 0.602539 0.828125
vt 0.602539 0.828125
vt 0.602539 0.828125
vt 0.602539 0.828125
vt 0.602539 0.828125
vt 0.602539 0.828125
vt 0.602539 0.828125
vt 0.602539 0.828125
vt 0.602539 0.828125
vt 0.602539 0.828125
vt 0.602539 0.828125
vt 0.602539 0.828125
vt 0.602539 0.828125
vt 0.602539 0.828125
vt 0.602539 0.828125
vt 0.602539 0.828125
vt 0.602539 0.828125
vt 0.602539 0.828125
vt 0.602539 0.828125
vt 0.602539 0.828125
vt 0.602539 0.828125
vt 0.602539 0.828125
vt 0.602539 0.828125
vt 0.602539 0.828125
vt 0.602539 0.828125
vt 0.602539 0.828125
vt 0.602539 0.828125
vt 0.602539 0.828125
vt 0.602539 0.828125
vt 0.602539 0.828125
vt 0.602539 0.828125
vt 0.602539 0.828125
vt 0.602539 0.828125
vt 0.602539 0.828125
vt 0.602539 0.828125
vt 0.602539 0.828125
vt 0.602539 0.828125
vt 0.602539 0.828125
vt 0.602539 0.828125
vt 0.602539 0.828125
vt 0.602539 0.828125
vt 0.602539 0.828125
vt 0.602539 0.828125
vt 0.602539 0.828125
vt 0.602539 0.828125
vt 0.602539 0.828125
vt 0.602539 0.828125
vt 0.602539 0.828125
vt 0.602539 0.828125
vt 0.602539 0.828125
vt 0.602539 0.828125
vt 0.602539 0.828125
vt 0.602539 0.828125
vt 0.602539 0.828125
vt 0.602539 0.828125
vt 0.602539 0.828125
vt 0.602539 0.828125
vt 0.602539 0.828125
vt 0.602539 0.828125
vt 0.602539 0.828125
vt 0.602539 0.828125
vt 0.602539 0.828125
vt 0.602539 0.828125
vt 0.602539 0.828125
vt 0.602539 0.828125
vt 0.602539 0.828125
vt 0.602539 0.828125
vt 0.602539 0.828125
vt 0.602539 0.828125
vt 0.602539 0.828125
vt 0.602539 0.828125
vt 0.602539 0.828125
vt 0.602539 0.828125
vt 0.602539 0.828125
vt 0.602539 0.828125
vt 0.602539 0.828125
vt 0.602539 0.828125
vt 0.602539 0.828125
vt 0.602539 0.828125
vt 0.602539 0.828125
vt 0.602539 0.828125
vt 0.602539 0.828125
vt 0.602539 0.828125
vt -2.751953 -0.515625
vt -2.751953 0.468750
vt -1.751953 0.468750
vt -0.330078 -0.937500
vt 0.475586 0.046875
vt -0.523438 0.046875
vt -0.409180 -0.937500
vt 0.350586 -0.937500
vt 0.589844 0.046875
vt -2.751953 -0.515625
vt -1.751953 0.468750
vt -1.751953 -0.515625
vt -0.664062 -2.437500
vt -0.429688 -3.437500
vt 0.334961 -3.437500
vn -0.017111 0.904114 0.426949
vn 0.196461 0.919739 0.339828
vn 0.337946 0.909847 0.240772
vn 0.726098 0.678968 0.108555
vn 0.627925 0.768721 0.121567
vn 0.730643 0.534012 0.425431
vn -0.005117 0.897715 0.440547
vn -0.381808 0.588428 0.712724
vn -0.559136 0.667094 0.492293
vn 0.000000 -1.000000 0.000000
vn 0.000000 -1.000000 0.000000
vn 0.000000 -1.000000 0.000000
vn 0.000000 -1.000000 0.000000
vn 0.000000 -1.000000 0.000000
vn 0.000000 -1.000000 0.000000
vn 0.000000 -1.000000 0.000000
vn 0.000000 -1.000000 0.000000
vn 0.000000 -1.000000 0.000000
vn 0.000000 -1.000000 0.000000
vn 0.000000 -1.000000 0.000000
vn 0.000000 -1.000000 0.000000
vn 0.000000 -1.000000 0.000000
vn 0.000000 -1.000000 0.000000
vn 0.000000 -1.000000 0.000000
vn -0.882375 0.127938 0.452820
vn -0.915697 0.369782 -0.157354
vn -0.710485 0.295418 0.638701
vn -0.855792 -0.361362 -0.370186
vn -0.752919 -0.364085 -0.548229
vn -0.915697 0.369782 -0.157354
vn -0.948898 0.307136 0.072525
vn -0.710485 0.295418 0.638701
vn -0.915697 0.369782 -0.157354
vn -0.915697 0.369782 -0.157354
vn -0.752919 -0.364085 -0.548229
vn -0.948898 0.307136 0.072525
vn 0.037437 -0.297865 0.953874
vn -0.710485 0.295418 0.638701
vn -0.310161 -0.079366 0.947365
vn -0.710485 0.295418 0.638701
vn -0.948898 0.307136 0.072525
vn -0.832065 0.049265 0.552486
vn -0.948898 0.307136 0.072525
vn -0.995918 -0.048477 -0.076145
vn -0.832065 0.049265 0.552486
vn 0.372764 -0.115065 0.920764
vn 0.833589 -0.447601 0.323701
vn 0.037437 -0.297865 0.953874
vn 0.833589 -0.447601 0.323701
vn 0.372764 -0.115065 0.920764
vn 0.808782 -0.293395 0.509696
vn -0.832065 0.049265 0.552486
vn -0.995918 -0.048477 -0.076145
vn -0.897475 -0.131894 0.420884
vn 0.528401 -0.666085 -0.526425
vn 0.912059 -0.353306 0.208141
vn 0.773091 -0.011052 -0.634199
vn 0.631073 -0.147747 0.761523
vn 0.908373 -0.207775 0.362887
vn 0.372764 -0.115065 0.920764
vn 0.912059 -0.353306 0.208141
vn 0.270962 -0.761235 -0.589153
vn -0.164131 -0.958800 -0.231869
vn 0.961960 -0.156279 0.224075
vn 0.773091 -0.011052 -0.634199
vn 0.945726 -0.296067 -0.133967
vn 0.912059 -0.353306 0.208141
vn 0.263478 -0.865065 -0.426899
vn 0.485624 -0.668457 0.563324
vn 0.912059 -0.353306 0.208141
vn 0.485624 -0.668457 0.563324
vn 0.248293 -0.314784 0.916112
vn -0.164131 -0.958800 -0.231869
vn -0.060225 -0.372513 -0.926071
vn -0.752919 -0.364085 -0.548229
vn -0.855792 -0.361362 -0.370186
vn -0.164131 -0.958800 -0.231869
vn -0.752919 -0.364085 -0.548229
vn -0.252892 -0.794908 0.551513
vn -0.334710 -0.914255 -0.228270
vn -0.510133 -0.803736 0.306223
vn -0.467186 0.014163 -0.884046
vn 0.645016 0.025304 -0.763750
vn 0.343487 0.114461 -0.932156
vn 0.343487 0.114461 -0.932156
vn -0.530392 0.132569 -0.837323
vn -0.467186 0.014163 -0.884046
vn -0.429307 0.043977 -0.902087
vn -0.667604 0.110433 -0.736280
vn -0.970295 0.068288 -0.232086
vn 0.645016 0.025304 -0.763750
vn -0.467186 0.014163 -0.884046
vn 0.386577 0.107762 -0.915940
vn -0.530392 0.132569 -0.837323
vn -0.891156 0.255709 -0.374772
vn -0.667604 0.110433 -0.736280
vn -0.970295 0.068288 -0.232086
vn -0.927906 0.241960 -0.283629
vn -0.926015 0.279738 0.253460
vn -0.891156 0.255709 -0.374772
vn -0.891994 0.272372 -0.360778
vn -0.667604 0.110433 -0.736280
vn -0.710485 0.295418 0.638701
vn -0.203594 -0.298710 0.932374
vn -0.577806 -0.351927 0.736402
vn -0.710485 0.295418 0.638701
vn -0.577806 -0.351927 0.736402
vn -0.882375 0.127938 0.452820
vn -0.340304 -0.419312 -0.841648
vn -0.995918 -0.048477 -0.076145
vn -0.752919 -0.364085 -0.548229
vn -0.752919 -0.364085 -0.548229
vn -0.995918 -0.048477 -0.076145
vn -0.948898 0.307136 0.072525
vn -0.970295 0.068288 -0.232086
vn -0.897475 -0.131894 0.420884
vn -0.995918 -0.048477 -0.076145
vn -0.995918 -0.048477 -0.076145
vn -0.503082 -0.158983 -0.849490
vn -0.907381 0.148707 -0.393124
vn -0.897475 -0.131894 0.420884
vn -0.971769 -0.204964 0.116856
vn -0.926015 0.279738 0.253460
vn -0.429307 0.043977 -0.902087
vn -0.907381 0.148707 -0.393124
vn -0.503082 -0.158983 -0.849490
vn 0.631073 -0.147747 0.761523
vn 0.907673 -0.123154 0.401203
vn 0.908373 -0.207775 0.362887
vn 0.908373 -0.207775 0.362887
vn 0.812223 0.099726 -0.574759
vn 0.773091 -0.011052 -0.634199
vn 0.889157 0.242254 -0.388217
vn 0.343487 0.114461 -0.932156
vn 0.812223 0.099726 -0.574759
vn 0.908373 -0.207775 0.362887
vn 0.907673 -0.123154 0.401203
vn 0.964741 -0.021607 -0.262314
vn 0.889157 0.242254 -0.388217
vn 0.812223 0.099726 -0.574759
vn 0.894205 0.216938 -0.391582
vn -0.213343 0.915797 0.340295
vn -0.017111 0.904114 0.426949
vn -0.370552 0.896601 0.242483
vn -0.005605 0.898158 0.439638
vn 0.562411 0.668151 0.487101
vn 0.381809 0.588427 0.712724
vn 0.000000 -1.000000 0.000000
vn 0.000000 -1.000000 0.000000
vn 0.000000 -1.000000 0.000000
vn 0.000000 -1.000000 0.000000
vn 0.000000 -1.000000 0.000000
vn 0.000000 -1.000000 0.000000
vn 0.263628 -0.798365 0.541400
vn -0.510133 -0.803736 0.306223
vn -0.577806 -0.351927 0.736402
vn 0.037437 -0.297865 0.953874
vn 0.263628 -0.798365 0.541400
vn -0.577806 -0.351927 0.736402
vn 0.894205 0.216938 -0.391582
vn 0.899076 0.219902 -0.378558
vn 0.889157 0.242254 -0.388217
vn -0.891156 0.255709 -0.374772
vn -0.901089 0.278969 -0.331987
vn -0.891994 0.272372 -0.360778
vn 0.353605 -0.707708 0.611647
vn 0.385706 0.918659 0.085423
vn 0.754698 0.276024 -0.595182
vn -0.180247 0.617679 0.765495
vn 0.353605 -0.707708 0.611647
vn 0.754698 0.276024 -0.595182
vn -0.360739 0.926570 0.106466
vn -0.499150 -0.341984 0.796176
vn -0.593347 0.257331 -0.762706
vn -0.499150 -0.341984 0.796176
vn -0.017846 0.987164 0.158713
vn -0.180247 0.617679 0.765495
vn -0.593347 0.257331 -0.762706
vn -0.499150 -0.341984 0.796176
vn -0.180247 0.617679 0.765495
vn 0.887487 0.110976 -0.447271
vn 0.991810 0.118634 -0.047319
vn 0.956589 0.211494 -0.200521
vn 0.984630 0.173868 -0.016551
vn 0.939061 0.300206 -0.167455
vn 0.755092 0.586124 -0.293761
s off
g polySurface1
usemtl reptar:Shape_068
f 1/1/1 2/2/2 3/3/3
f 3/4/4 2/5/5 4/6/6
f 2/7/7 5/8/8 6/9/9
f 2/10/10 7/11/11 5/12/12
f 8/13/13 7/14/14 2/15/15
f 9/16/16 2/17/17 10/18/18
f 9/19/19 8/20/20 2/21/21
f 10/22/22 2/23/23 1/24/24
f 12/25/25 11/26/26 13/27/27
f 32/28/28 14/29/29 11/30/30
f 15/31/31 13/32/32 11/33/33
f 11/34/34 14/35/35 15/36/36
f 16/37/37 13/38/38 17/39/39
f 13/40/40 15/41/41 17/42/42
f 15/43/43 18/44/44 17/45/45
f 17/46/46 19/47/47 16/48/48
f 19/49/49 17/50/50 20/51/51
f 17/52/52 18/53/53 21/54/54
f 22/55/55 19/56/56 23/57/57
f 21/58/58 20/59/59 17/60/60
f 19/61/61 22/62/62 31/63/63
f 20/64/64 23/65/65 19/66/66
f 19/67/67 31/68/68 24/69/69
f 19/70/70 24/71/71 16/72/72
f 31/73/73 22/74/74 14/75/75
f 32/76/76 31/77/77 14/78/78
f 24/79/79 31/80/80 33/81/81
f 25/82/82 26/83/83 8/84/84
f 8/85/85 9/86/86 25/87/87
f 23/88/88 25/89/89 27/90/90
f 26/91/91 25/92/92 23/93/93
f 9/94/94 28/95/95 25/96/96
f 27/97/97 25/98/98 4/99/99
f 28/100/100 29/101/101 25/102/102
f 13/103/103 16/104/104 34/105/105
f 13/106/106 34/107/107 12/108/108
f 22/109/109 18/110/110 14/111/111
f 14/112/112 18/113/113 15/114/114
f 27/115/115 21/116/116 18/117/117
f 18/118/118 22/119/119 27/120/120
f 21/121/121 27/122/122 4/123/123
f 23/124/124 27/125/125 22/126/126
f 21/127/127 4/128/128 20/129/129
f 20/130/130 26/131/131 23/132/132
f 7/133/133 8/134/134 26/135/135
f 20/136/136 4/137/137 26/138/138
f 7/139/139 26/140/140 6/141/141
f 10/142/142 1/143/143 3/144/144
f 10/145/145 29/146/146 30/147/147
f 28/148/148 10/149/149 30/150/150
f 9/151/151 10/152/152 28/153/153
f 24/154/154 33/155/155 34/156/156
f 16/157/157 24/158/158 34/159/159
f 6/160/160 5/161/161 7/162/162
f 28/163/163 30/164/164 29/165/165
f 35/166/166 36/167/167 37/168/168
f 38/169/169 35/170/170 37/171/171
f 39/172/172 40/173/173 41/174/174
f 40/175/175 42/176/176 38/177/177
f 41/178/178 40/179/179 38/180/180
s 1
f 32/28/181 11/26/182 31/77/183
f 11/26/182 12/108/184 31/77/183
f 12/108/184 34/156/185 31/77/183
f 34/156/185 33/81/186 31/77/183
