# This file uses centimeters as units for non-parametric coordinates.

mtllib Saguan_unsized.mtl
g default
v 15.094306 0.037186 12.182158
v 24.092587 0.037186 12.182158
v 15.094306 6.316467 12.182158
v 24.092587 6.316467 12.182158
v 15.094306 6.316467 11.711929
v 24.092587 6.316467 11.711929
v 15.094306 0.037186 11.711929
v 24.092587 0.037186 11.711929
vt 0.037478 0.484215
vt 0.037478 0.478858
vt 0.042836 0.484215
vt 0.042836 0.478858
vt 0.037478 0.489573
vt 0.042836 0.489573
vt 0.037478 0.494930
vt 0.042836 0.494930
vt 0.037478 0.500288
vt 0.042836 0.500288
vt 0.048193 0.484215
vt 0.048193 0.478858
vt 0.032121 0.484215
vt 0.032121 0.478858
vt 1.173261 1.178435
vt -0.184367 1.178435
vt 1.173261 -0.179194
vt -0.184367 -0.179194
vt 1.186589 -0.186589
vt -0.186589 -0.186589
vt 1.186589 1.186589
vt -0.186589 1.186589
vn 0.000000 0.000000 1.000000
vn 0.000000 0.000000 1.000000
vn 0.000000 0.000000 1.000000
vn 0.000000 0.000000 1.000000
vn 0.000000 1.000000 0.000000
vn 0.000000 1.000000 0.000000
vn 0.000000 1.000000 0.000000
vn 0.000000 1.000000 0.000000
vn 0.000000 0.000000 -1.000000
vn 0.000000 0.000000 -1.000000
vn 0.000000 0.000000 -1.000000
vn 0.000000 0.000000 -1.000000
vn 0.000000 -1.000000 0.000000
vn 0.000000 -1.000000 0.000000
vn 0.000000 -1.000000 0.000000
vn 0.000000 -1.000000 0.000000
vn 1.000000 0.000000 0.000000
vn 1.000000 0.000000 0.000000
vn 1.000000 0.000000 0.000000
vn 1.000000 0.000000 0.000000
vn -1.000000 0.000000 0.000000
vn -1.000000 0.000000 0.000000
vn -1.000000 0.000000 0.000000
vn -1.000000 0.000000 0.000000
s 1
g polySurface348 polySurface145
usemtl phong1SG
f 2/17/1 4/15/2 1/18/3
f 1/18/3 4/15/2 3/16/4
s 2
f 4/3/5 6/6/6 3/1/7
f 3/1/7 6/6/6 5/5/8
s 3
f 6/21/9 8/19/10 5/22/11
f 5/22/11 8/19/10 7/20/12
s 4
f 8/8/13 2/10/14 7/7/15
f 7/7/15 2/10/14 1/9/16
s 5
f 8/12/17 6/11/18 2/4/19
f 2/4/19 6/11/18 4/3/20
s 6
f 1/2/21 3/1/22 7/14/23
f 7/14/23 3/1/22 5/13/24
