# This file uses centimeters as units for non-parametric coordinates.

mtllib Windows_unsized.mtl
g default
v -9.966059 2.115481 12.210899
v -5.291359 2.115481 12.210899
v -9.966059 5.906479 12.210899
v -5.291359 5.906479 12.210899
v -9.966059 5.906479 12.026810
v -5.291359 5.906479 12.026810
v -9.966059 2.115481 12.026810
v -5.291359 2.115481 12.026810
vt 0.375000 0.250000
vt 0.375000 0.000000
vt 0.625000 0.250000
vt 0.625000 0.000000
vt 0.375000 0.500000
vt 0.625000 0.500000
vt 0.375000 0.750000
vt 0.625000 0.750000
vt 0.375000 1.000000
vt 0.625000 1.000000
vt 0.875000 0.250000
vt 0.875000 0.000000
vt 0.125000 0.250000
vt 0.125000 0.000000
vn 0.000000 0.000000 1.000000
vn 0.000000 0.000000 1.000000
vn 0.000000 0.000000 1.000000
vn 0.000000 0.000000 1.000000
vn 0.000000 1.000000 0.000000
vn 0.000000 1.000000 0.000000
vn 0.000000 1.000000 0.000000
vn 0.000000 1.000000 0.000000
vn 0.000000 0.000000 -1.000000
vn 0.000000 0.000000 -1.000000
vn 0.000000 0.000000 -1.000000
vn 0.000000 0.000000 -1.000000
vn 0.000000 -1.000000 0.000000
vn 0.000000 -1.000000 0.000000
vn 0.000000 -1.000000 0.000000
vn 0.000000 -1.000000 0.000000
vn 1.000000 0.000000 0.000000
vn 1.000000 0.000000 0.000000
vn 1.000000 0.000000 0.000000
vn 1.000000 0.000000 0.000000
vn -1.000000 0.000000 0.000000
vn -1.000000 0.000000 0.000000
vn -1.000000 0.000000 0.000000
vn -1.000000 0.000000 0.000000
s 1
g polySurface339 polySurface145
usemtl lambert21SG
f 2/4/1 4/3/2 1/2/3
f 1/2/3 4/3/2 3/1/4
s 2
f 4/3/5 6/6/6 3/1/7
f 3/1/7 6/6/6 5/5/8
s 3
f 6/6/9 8/8/10 5/5/11
f 5/5/11 8/8/10 7/7/12
s 4
f 8/8/13 2/10/14 7/7/15
f 7/7/15 2/10/14 1/9/16
s 5
f 8/12/17 6/11/18 2/4/19
f 2/4/19 6/11/18 4/3/20
s 6
f 1/2/21 3/1/22 7/14/23
f 7/14/23 3/1/22 5/13/24
g default
v 5.095054 2.115481 12.210926
v 9.769754 2.115481 12.210926
v 5.095054 5.906479 12.210926
v 9.769754 5.906479 12.210926
v 5.095054 5.906479 12.026836
v 9.769754 5.906479 12.026836
v 5.095054 2.115481 12.026836
v 9.769754 2.115481 12.026836
vt 0.375000 0.250000
vt 0.375000 0.000000
vt 0.625000 0.250000
vt 0.625000 0.000000
vt 0.375000 0.500000
vt 0.625000 0.500000
vt 0.375000 0.750000
vt 0.625000 0.750000
vt 0.375000 1.000000
vt 0.625000 1.000000
vt 0.875000 0.250000
vt 0.875000 0.000000
vt 0.125000 0.250000
vt 0.125000 0.000000
vn 0.000000 0.000000 1.000000
vn 0.000000 0.000000 1.000000
vn 0.000000 0.000000 1.000000
vn 0.000000 0.000000 1.000000
vn 0.000000 1.000000 0.000000
vn 0.000000 1.000000 0.000000
vn 0.000000 1.000000 0.000000
vn 0.000000 1.000000 0.000000
vn 0.000000 0.000000 -1.000000
vn 0.000000 0.000000 -1.000000
vn 0.000000 0.000000 -1.000000
vn 0.000000 0.000000 -1.000000
vn 0.000000 -1.000000 0.000000
vn 0.000000 -1.000000 0.000000
vn 0.000000 -1.000000 0.000000
vn 0.000000 -1.000000 0.000000
vn 1.000000 0.000000 0.000000
vn 1.000000 0.000000 0.000000
vn 1.000000 0.000000 0.000000
vn 1.000000 0.000000 0.000000
vn -1.000000 0.000000 0.000000
vn -1.000000 0.000000 0.000000
vn -1.000000 0.000000 0.000000
vn -1.000000 0.000000 0.000000
s 1
g polySurface145 polySurface360
usemtl lambert21SG
f 10/18/25 12/17/26 9/16/27
f 9/16/27 12/17/26 11/15/28
s 2
f 12/17/29 14/20/30 11/15/31
f 11/15/31 14/20/30 13/19/32
s 3
f 14/20/33 16/22/34 13/19/35
f 13/19/35 16/22/34 15/21/36
s 4
f 16/22/37 10/24/38 15/21/39
f 15/21/39 10/24/38 9/23/40
s 5
f 16/26/41 14/25/42 10/18/43
f 10/18/43 14/25/42 12/17/44
s 6
f 9/16/45 11/15/46 15/28/47
f 15/28/47 11/15/46 13/27/48
g default
v 4.913261 11.682649 12.210926
v 9.951548 11.682649 12.210926
v 4.913261 15.305158 12.210926
v 9.951548 15.305158 12.210926
v 4.913261 15.305158 12.026836
v 9.951548 15.305158 12.026836
v 4.913261 11.682649 12.026836
v 9.951548 11.682649 12.026836
vt 0.375000 0.250000
vt 0.375000 0.000000
vt 0.625000 0.250000
vt 0.625000 0.000000
vt 0.375000 0.500000
vt 0.625000 0.500000
vt 0.375000 0.750000
vt 0.625000 0.750000
vt 0.375000 1.000000
vt 0.625000 1.000000
vt 0.875000 0.250000
vt 0.875000 0.000000
vt 0.125000 0.250000
vt 0.125000 0.000000
vn 0.000000 0.000000 1.000000
vn 0.000000 0.000000 1.000000
vn 0.000000 0.000000 1.000000
vn 0.000000 0.000000 1.000000
vn 0.000000 1.000000 0.000000
vn 0.000000 1.000000 0.000000
vn 0.000000 1.000000 0.000000
vn 0.000000 1.000000 0.000000
vn 0.000000 0.000000 -1.000000
vn 0.000000 0.000000 -1.000000
vn 0.000000 0.000000 -1.000000
vn 0.000000 0.000000 -1.000000
vn 0.000000 -1.000000 0.000000
vn 0.000000 -1.000000 0.000000
vn 0.000000 -1.000000 0.000000
vn 0.000000 -1.000000 0.000000
vn 1.000000 0.000000 0.000000
vn 1.000000 0.000000 0.000000
vn 1.000000 0.000000 0.000000
vn 1.000000 0.000000 0.000000
vn -1.000000 0.000000 0.000000
vn -1.000000 0.000000 0.000000
vn -1.000000 0.000000 0.000000
vn -1.000000 0.000000 0.000000
s 1
g polySurface145 polySurface336
usemtl lambert21SG
f 18/32/49 20/31/50 17/30/51
f 17/30/51 20/31/50 19/29/52
s 2
f 20/31/53 22/34/54 19/29/55
f 19/29/55 22/34/54 21/33/56
s 3
f 22/34/57 24/36/58 21/33/59
f 21/33/59 24/36/58 23/35/60
s 4
f 24/36/61 18/38/62 23/35/63
f 23/35/63 18/38/62 17/37/64
s 5
f 24/40/65 22/39/66 18/32/67
f 18/32/67 22/39/66 20/31/68
s 6
f 17/30/69 19/29/70 23/42/71
f 23/42/71 19/29/70 21/41/72
g default
v -10.182714 11.682649 12.210926
v -5.144428 11.682649 12.210926
v -10.182714 15.305158 12.210926
v -5.144428 15.305158 12.210926
v -10.182714 15.305158 12.026836
v -5.144428 15.305158 12.026836
v -10.182714 11.682649 12.026836
v -5.144428 11.682649 12.026836
vt 0.375000 0.250000
vt 0.375000 0.000000
vt 0.625000 0.250000
vt 0.625000 0.000000
vt 0.375000 0.500000
vt 0.625000 0.500000
vt 0.375000 0.750000
vt 0.625000 0.750000
vt 0.375000 1.000000
vt 0.625000 1.000000
vt 0.875000 0.250000
vt 0.875000 0.000000
vt 0.125000 0.250000
vt 0.125000 0.000000
vn 0.000000 0.000000 1.000000
vn 0.000000 0.000000 1.000000
vn 0.000000 0.000000 1.000000
vn 0.000000 0.000000 1.000000
vn 0.000000 1.000000 0.000000
vn 0.000000 1.000000 0.000000
vn 0.000000 1.000000 0.000000
vn 0.000000 1.000000 0.000000
vn 0.000000 0.000000 -1.000000
vn 0.000000 0.000000 -1.000000
vn 0.000000 0.000000 -1.000000
vn 0.000000 0.000000 -1.000000
vn 0.000000 -1.000000 0.000000
vn 0.000000 -1.000000 0.000000
vn 0.000000 -1.000000 0.000000
vn 0.000000 -1.000000 0.000000
vn 1.000000 0.000000 0.000000
vn 1.000000 0.000000 0.000000
vn 1.000000 0.000000 0.000000
vn 1.000000 0.000000 0.000000
vn -1.000000 0.000000 0.000000
vn -1.000000 0.000000 0.000000
vn -1.000000 0.000000 0.000000
vn -1.000000 0.000000 0.000000
s 1
g polySurface145 polySurface388
usemtl lambert21SG
f 26/46/73 28/45/74 25/44/75
f 25/44/75 28/45/74 27/43/76
s 2
f 28/45/77 30/48/78 27/43/79
f 27/43/79 30/48/78 29/47/80
s 3
f 30/48/81 32/50/82 29/47/83
f 29/47/83 32/50/82 31/49/84
s 4
f 32/50/85 26/52/86 31/49/87
f 31/49/87 26/52/86 25/51/88
s 5
f 32/54/89 30/53/90 26/46/91
f 26/46/91 30/53/90 28/45/92
s 6
f 25/44/93 27/43/94 31/56/95
f 31/56/95 27/43/94 29/55/96
g default
v -12.373930 11.104746 4.783867
v -12.373930 11.104746 8.950314
v -12.373930 14.895744 4.783867
v -12.373930 14.895744 8.950314
v -12.189840 14.895744 4.783867
v -12.189840 14.895744 8.950314
v -12.189840 11.104746 4.783867
v -12.189840 11.104746 8.950314
vt 0.375000 0.250000
vt 0.375000 0.000000
vt 0.625000 0.250000
vt 0.625000 0.000000
vt 0.375000 0.500000
vt 0.625000 0.500000
vt 0.375000 0.750000
vt 0.625000 0.750000
vt 0.375000 1.000000
vt 0.625000 1.000000
vt 0.875000 0.250000
vt 0.875000 0.000000
vt 0.125000 0.250000
vt 0.125000 0.000000
vn -1.000000 0.000000 0.000000
vn -1.000000 0.000000 0.000000
vn -1.000000 0.000000 0.000000
vn -1.000000 0.000000 0.000000
vn 0.000000 1.000000 0.000000
vn 0.000000 1.000000 0.000000
vn 0.000000 1.000000 0.000000
vn 0.000000 1.000000 0.000000
vn 1.000000 0.000000 0.000000
vn 1.000000 0.000000 0.000000
vn 1.000000 0.000000 0.000000
vn 1.000000 0.000000 0.000000
vn 0.000000 -1.000000 0.000000
vn 0.000000 -1.000000 0.000000
vn 0.000000 -1.000000 0.000000
vn 0.000000 -1.000000 0.000000
vn 0.000000 0.000000 1.000000
vn 0.000000 0.000000 1.000000
vn 0.000000 0.000000 1.000000
vn 0.000000 0.000000 1.000000
vn 0.000000 0.000000 -1.000000
vn 0.000000 0.000000 -1.000000
vn 0.000000 0.000000 -1.000000
vn 0.000000 0.000000 -1.000000
s 1
g polySurface145 polySurface475
usemtl lambert21SG
f 34/60/97 36/59/98 33/58/99
f 33/58/99 36/59/98 35/57/100
s 2
f 36/59/101 38/62/102 35/57/103
f 35/57/103 38/62/102 37/61/104
s 3
f 38/62/105 40/64/106 37/61/107
f 37/61/107 40/64/106 39/63/108
s 4
f 40/64/109 34/66/110 39/63/111
f 39/63/111 34/66/110 33/65/112
s 5
f 40/68/113 38/67/114 34/60/115
f 34/60/115 38/67/114 36/59/116
s 6
f 33/58/117 35/57/118 39/70/119
f 39/70/119 35/57/118 37/69/120
g default
v -12.374153 2.115481 4.783867
v -12.374153 2.115481 8.950314
v -12.374153 5.906479 4.783867
v -12.374153 5.906479 8.950314
v -12.190063 5.906479 4.783867
v -12.190063 5.906479 8.950314
v -12.190063 2.115481 4.783867
v -12.190063 2.115481 8.950314
vt 0.375000 0.250000
vt 0.375000 0.000000
vt 0.625000 0.250000
vt 0.625000 0.000000
vt 0.375000 0.500000
vt 0.625000 0.500000
vt 0.375000 0.750000
vt 0.625000 0.750000
vt 0.375000 1.000000
vt 0.625000 1.000000
vt 0.875000 0.250000
vt 0.875000 0.000000
vt 0.125000 0.250000
vt 0.125000 0.000000
vn -1.000000 0.000000 0.000000
vn -1.000000 0.000000 0.000000
vn -1.000000 0.000000 0.000000
vn -1.000000 0.000000 0.000000
vn 0.000000 1.000000 0.000000
vn 0.000000 1.000000 0.000000
vn 0.000000 1.000000 0.000000
vn 0.000000 1.000000 0.000000
vn 1.000000 0.000000 0.000000
vn 1.000000 0.000000 0.000000
vn 1.000000 0.000000 0.000000
vn 1.000000 0.000000 0.000000
vn 0.000000 -1.000000 0.000000
vn 0.000000 -1.000000 0.000000
vn 0.000000 -1.000000 0.000000
vn 0.000000 -1.000000 0.000000
vn 0.000000 0.000000 1.000000
vn 0.000000 0.000000 1.000000
vn 0.000000 0.000000 1.000000
vn 0.000000 0.000000 1.000000
vn 0.000000 0.000000 -1.000000
vn 0.000000 0.000000 -1.000000
vn 0.000000 0.000000 -1.000000
vn 0.000000 0.000000 -1.000000
s 1
g polySurface145 polySurface473
usemtl lambert21SG
f 42/74/121 44/73/122 41/72/123
f 41/72/123 44/73/122 43/71/124
s 2
f 44/73/125 46/76/126 43/71/127
f 43/71/127 46/76/126 45/75/128
s 3
f 46/76/129 48/78/130 45/75/131
f 45/75/131 48/78/130 47/77/132
s 4
f 48/78/133 42/80/134 47/77/135
f 47/77/135 42/80/134 41/79/136
s 5
f 48/82/137 46/81/138 42/74/139
f 42/74/139 46/81/138 44/73/140
s 6
f 41/72/141 43/71/142 47/84/143
f 47/84/143 43/71/142 45/83/144
g default
v -12.373930 11.006180 -9.547702
v -12.373930 11.006180 -5.381256
v -12.373930 14.797177 -9.547702
v -12.373930 14.797177 -5.381256
v -12.189840 14.797177 -9.547702
v -12.189840 14.797177 -5.381256
v -12.189840 11.006180 -9.547702
v -12.189840 11.006180 -5.381256
vt 0.375000 0.250000
vt 0.375000 0.000000
vt 0.625000 0.250000
vt 0.625000 0.000000
vt 0.375000 0.500000
vt 0.625000 0.500000
vt 0.375000 0.750000
vt 0.625000 0.750000
vt 0.375000 1.000000
vt 0.625000 1.000000
vt 0.875000 0.250000
vt 0.875000 0.000000
vt 0.125000 0.250000
vt 0.125000 0.000000
vn -1.000000 0.000000 0.000000
vn -1.000000 0.000000 0.000000
vn -1.000000 0.000000 0.000000
vn -1.000000 0.000000 0.000000
vn 0.000000 1.000000 0.000000
vn 0.000000 1.000000 0.000000
vn 0.000000 1.000000 0.000000
vn 0.000000 1.000000 0.000000
vn 1.000000 0.000000 0.000000
vn 1.000000 0.000000 0.000000
vn 1.000000 0.000000 0.000000
vn 1.000000 0.000000 0.000000
vn 0.000000 -1.000000 0.000000
vn 0.000000 -1.000000 0.000000
vn 0.000000 -1.000000 0.000000
vn 0.000000 -1.000000 0.000000
vn 0.000000 0.000000 1.000000
vn 0.000000 0.000000 1.000000
vn 0.000000 0.000000 1.000000
vn 0.000000 0.000000 1.000000
vn 0.000000 0.000000 -1.000000
vn 0.000000 0.000000 -1.000000
vn 0.000000 0.000000 -1.000000
vn 0.000000 0.000000 -1.000000
s 1
g polySurface145 polySurface470
usemtl lambert21SG
f 50/88/145 52/87/146 49/86/147
f 49/86/147 52/87/146 51/85/148
s 2
f 52/87/149 54/90/150 51/85/151
f 51/85/151 54/90/150 53/89/152
s 3
f 54/90/153 56/92/154 53/89/155
f 53/89/155 56/92/154 55/91/156
s 4
f 56/92/157 50/94/158 55/91/159
f 55/91/159 50/94/158 49/93/160
s 5
f 56/96/161 54/95/162 50/88/163
f 50/88/163 54/95/162 52/87/164
s 6
f 49/86/165 51/85/166 55/98/167
f 55/98/167 51/85/166 53/97/168
g default
v -12.374153 2.115481 -9.547702
v -12.374153 2.115481 -5.381256
v -12.374153 5.906479 -9.547702
v -12.374153 5.906479 -5.381256
v -12.190063 5.906479 -9.547702
v -12.190063 5.906479 -5.381256
v -12.190063 2.115481 -9.547702
v -12.190063 2.115481 -5.381256
vt 0.375000 0.250000
vt 0.375000 0.000000
vt 0.625000 0.250000
vt 0.625000 0.000000
vt 0.375000 0.500000
vt 0.625000 0.500000
vt 0.375000 0.750000
vt 0.625000 0.750000
vt 0.375000 1.000000
vt 0.625000 1.000000
vt 0.875000 0.250000
vt 0.875000 0.000000
vt 0.125000 0.250000
vt 0.125000 0.000000
vn -1.000000 0.000000 0.000000
vn -1.000000 0.000000 0.000000
vn -1.000000 0.000000 0.000000
vn -1.000000 0.000000 0.000000
vn 0.000000 1.000000 0.000000
vn 0.000000 1.000000 0.000000
vn 0.000000 1.000000 0.000000
vn 0.000000 1.000000 0.000000
vn 1.000000 0.000000 0.000000
vn 1.000000 0.000000 0.000000
vn 1.000000 0.000000 0.000000
vn 1.000000 0.000000 0.000000
vn 0.000000 -1.000000 0.000000
vn 0.000000 -1.000000 0.000000
vn 0.000000 -1.000000 0.000000
vn 0.000000 -1.000000 0.000000
vn 0.000000 0.000000 1.000000
vn 0.000000 0.000000 1.000000
vn 0.000000 0.000000 1.000000
vn 0.000000 0.000000 1.000000
vn 0.000000 0.000000 -1.000000
vn 0.000000 0.000000 -1.000000
vn 0.000000 0.000000 -1.000000
vn 0.000000 0.000000 -1.000000
s 1
g polySurface145 polySurface303
usemtl lambert21SG
f 58/102/169 60/101/170 57/100/171
f 57/100/171 60/101/170 59/99/172
s 2
f 60/101/173 62/104/174 59/99/175
f 59/99/175 62/104/174 61/103/176
s 3
f 62/104/177 64/106/178 61/103/179
f 61/103/179 64/106/178 63/105/180
s 4
f 64/106/181 58/108/182 63/105/183
f 63/105/183 58/108/182 57/107/184
s 5
f 64/110/185 62/109/186 58/102/187
f 58/102/187 62/109/186 60/101/188
s 6
f 57/100/189 59/99/190 63/112/191
f 63/112/191 59/99/190 61/111/192
g default
v 4.487897 11.219772 -12.078027
v 9.073361 11.219772 -12.078027
v 4.487897 15.768033 -12.078027
v 9.073361 15.768033 -12.078027
v 4.487897 15.768033 -12.262117
v 9.073361 15.768033 -12.262117
v 4.487897 11.219772 -12.262117
v 9.073361 11.219772 -12.262117
vt 0.375000 0.250000
vt 0.375000 0.000000
vt 0.625000 0.250000
vt 0.625000 0.000000
vt 0.375000 0.500000
vt 0.625000 0.500000
vt 0.375000 0.750000
vt 0.625000 0.750000
vt 0.375000 1.000000
vt 0.625000 1.000000
vt 0.875000 0.250000
vt 0.875000 0.000000
vt 0.125000 0.250000
vt 0.125000 0.000000
vn 0.000000 0.000000 1.000000
vn 0.000000 0.000000 1.000000
vn 0.000000 0.000000 1.000000
vn 0.000000 0.000000 1.000000
vn 0.000000 1.000000 0.000000
vn 0.000000 1.000000 0.000000
vn 0.000000 1.000000 0.000000
vn 0.000000 1.000000 0.000000
vn 0.000000 0.000000 -1.000000
vn 0.000000 0.000000 -1.000000
vn 0.000000 0.000000 -1.000000
vn 0.000000 0.000000 -1.000000
vn 0.000000 -1.000000 0.000000
vn 0.000000 -1.000000 0.000000
vn 0.000000 -1.000000 0.000000
vn 0.000000 -1.000000 0.000000
vn 1.000000 0.000000 0.000000
vn 1.000000 0.000000 0.000000
vn 1.000000 0.000000 0.000000
vn 1.000000 0.000000 0.000000
vn -1.000000 0.000000 0.000000
vn -1.000000 0.000000 0.000000
vn -1.000000 0.000000 0.000000
vn -1.000000 0.000000 0.000000
s 1
g polySurface145 polySurface321
usemtl lambert21SG
f 66/116/193 68/115/194 65/114/195
f 65/114/195 68/115/194 67/113/196
s 2
f 68/115/197 70/118/198 67/113/199
f 67/113/199 70/118/198 69/117/200
s 3
f 70/118/201 72/120/202 69/117/203
f 69/117/203 72/120/202 71/119/204
s 4
f 72/120/205 66/122/206 71/119/207
f 71/119/207 66/122/206 65/121/208
s 5
f 72/124/209 70/123/210 66/116/211
f 66/116/211 70/123/210 68/115/212
s 6
f 65/114/213 67/113/214 71/126/215
f 71/126/215 67/113/214 69/125/216
g default
v 5.651180 2.668671 -11.949922
v 9.727147 2.668671 -11.949922
v 5.651180 5.902990 -11.949922
v 9.727147 5.902990 -11.949922
v 5.651180 5.902990 -12.114880
v 9.727147 5.902990 -12.114880
v 5.651180 2.668671 -12.114880
v 9.727147 2.668671 -12.114880
vt 0.375000 0.250000
vt 0.375000 0.000000
vt 0.625000 0.250000
vt 0.625000 0.000000
vt 0.375000 0.500000
vt 0.625000 0.500000
vt 0.375000 0.750000
vt 0.625000 0.750000
vt 0.375000 1.000000
vt 0.625000 1.000000
vt 0.875000 0.250000
vt 0.875000 0.000000
vt 0.125000 0.250000
vt 0.125000 0.000000
vn 0.000000 0.000000 1.000000
vn 0.000000 0.000000 1.000000
vn 0.000000 0.000000 1.000000
vn 0.000000 0.000000 1.000000
vn 0.000000 1.000000 0.000000
vn 0.000000 1.000000 0.000000
vn 0.000000 1.000000 0.000000
vn 0.000000 1.000000 0.000000
vn 0.000000 0.000000 -1.000000
vn 0.000000 0.000000 -1.000000
vn 0.000000 0.000000 -1.000000
vn 0.000000 0.000000 -1.000000
vn 0.000000 -1.000000 0.000000
vn 0.000000 -1.000000 0.000000
vn 0.000000 -1.000000 0.000000
vn 0.000000 -1.000000 0.000000
vn 1.000000 0.000000 0.000000
vn 1.000000 0.000000 0.000000
vn 1.000000 0.000000 0.000000
vn 1.000000 0.000000 0.000000
vn -1.000000 0.000000 0.000000
vn -1.000000 0.000000 0.000000
vn -1.000000 0.000000 0.000000
vn -1.000000 0.000000 0.000000
s 1
g polySurface145 polySurface393
usemtl lambert21SG
f 74/130/217 76/129/218 73/128/219
f 73/128/219 76/129/218 75/127/220
s 2
f 76/129/221 78/132/222 75/127/223
f 75/127/223 78/132/222 77/131/224
s 3
f 78/132/225 80/134/226 77/131/227
f 77/131/227 80/134/226 79/133/228
s 4
f 80/134/229 74/136/230 79/133/231
f 79/133/231 74/136/230 73/135/232
s 5
f 80/138/233 78/137/234 74/130/235
f 74/130/235 78/137/234 76/129/236
s 6
f 73/128/237 75/127/238 79/140/239
f 79/140/239 75/127/238 77/139/240
g default
v -9.312095 0.429174 -12.026810
v -4.311355 0.429174 -12.026810
v -9.312095 5.922196 -12.026810
v -4.311355 5.922196 -12.026810
v -9.312095 5.922196 -12.104767
v -4.311355 5.922196 -12.104767
v -9.312095 0.429174 -12.104767
v -4.311355 0.429174 -12.104767
vt 0.375000 0.250000
vt 0.375000 0.000000
vt 0.625000 0.250000
vt 0.625000 0.000000
vt 0.375000 0.500000
vt 0.625000 0.500000
vt 0.375000 0.750000
vt 0.625000 0.750000
vt 0.375000 1.000000
vt 0.625000 1.000000
vt 0.875000 0.250000
vt 0.875000 0.000000
vt 0.125000 0.250000
vt 0.125000 0.000000
vn 0.000000 0.000000 1.000000
vn 0.000000 0.000000 1.000000
vn 0.000000 0.000000 1.000000
vn 0.000000 0.000000 1.000000
vn 0.000000 1.000000 0.000000
vn 0.000000 1.000000 0.000000
vn 0.000000 1.000000 0.000000
vn 0.000000 1.000000 0.000000
vn 0.000000 0.000000 -1.000000
vn 0.000000 0.000000 -1.000000
vn 0.000000 0.000000 -1.000000
vn 0.000000 0.000000 -1.000000
vn 0.000000 -1.000000 0.000000
vn 0.000000 -1.000000 0.000000
vn 0.000000 -1.000000 0.000000
vn 0.000000 -1.000000 0.000000
vn 1.000000 0.000000 0.000000
vn 1.000000 0.000000 0.000000
vn 1.000000 0.000000 0.000000
vn 1.000000 0.000000 0.000000
vn -1.000000 0.000000 0.000000
vn -1.000000 0.000000 0.000000
vn -1.000000 0.000000 0.000000
vn -1.000000 0.000000 0.000000
s 1
g polySurface145 polySurface390
usemtl lambert21SG
f 82/144/241 84/143/242 81/142/243
f 81/142/243 84/143/242 83/141/244
s 2
f 84/143/245 86/146/246 83/141/247
f 83/141/247 86/146/246 85/145/248
s 3
f 86/146/249 88/148/250 85/145/251
f 85/145/251 88/148/250 87/147/252
s 4
f 88/148/253 82/150/254 87/147/255
f 87/147/255 82/150/254 81/149/256
s 5
f 88/152/257 86/151/258 82/144/259
f 82/144/259 86/151/258 84/143/260
s 6
f 81/142/261 83/141/262 87/154/263
f 87/154/263 83/141/262 85/153/264
g default
v -9.041281 11.219772 -12.079027
v -4.455818 11.219772 -12.079027
v -9.041281 15.768033 -12.079027
v -4.455818 15.768033 -12.079027
v -9.041281 15.768033 -12.263116
v -4.455818 15.768033 -12.263116
v -9.041281 11.219772 -12.263116
v -4.455818 11.219772 -12.263116
vt 0.375000 0.250000
vt 0.375000 0.000000
vt 0.625000 0.250000
vt 0.625000 0.000000
vt 0.375000 0.500000
vt 0.625000 0.500000
vt 0.375000 0.750000
vt 0.625000 0.750000
vt 0.375000 1.000000
vt 0.625000 1.000000
vt 0.875000 0.250000
vt 0.875000 0.000000
vt 0.125000 0.250000
vt 0.125000 0.000000
vn 0.000000 0.000000 1.000000
vn 0.000000 0.000000 1.000000
vn 0.000000 0.000000 1.000000
vn 0.000000 0.000000 1.000000
vn 0.000000 1.000000 0.000000
vn 0.000000 1.000000 0.000000
vn 0.000000 1.000000 0.000000
vn 0.000000 1.000000 0.000000
vn 0.000000 0.000000 -1.000000
vn 0.000000 0.000000 -1.000000
vn 0.000000 0.000000 -1.000000
vn 0.000000 0.000000 -1.000000
vn 0.000000 -1.000000 0.000000
vn 0.000000 -1.000000 0.000000
vn 0.000000 -1.000000 0.000000
vn 0.000000 -1.000000 0.000000
vn 1.000000 0.000000 0.000000
vn 1.000000 0.000000 0.000000
vn 1.000000 0.000000 0.000000
vn 1.000000 0.000000 0.000000
vn -1.000000 0.000000 0.000000
vn -1.000000 0.000000 0.000000
vn -1.000000 0.000000 0.000000
vn -1.000000 0.000000 0.000000
s 1
g polySurface145 polySurface363
usemtl lambert21SG
f 90/158/265 92/157/266 89/156/267
f 89/156/267 92/157/266 91/155/268
s 2
f 92/157/269 94/160/270 91/155/271
f 91/155/271 94/160/270 93/159/272
s 3
f 94/160/273 96/162/274 93/159/275
f 93/159/275 96/162/274 95/161/276
s 4
f 96/162/277 90/164/278 95/161/279
f 95/161/279 90/164/278 89/163/280
s 5
f 96/166/281 94/165/282 90/158/283
f 90/158/283 94/165/282 92/157/284
s 6
f 89/156/285 91/155/286 95/168/287
f 95/168/287 91/155/286 93/167/288
g default
v -0.704010 0.684629 -12.081520
v 3.447010 0.684629 -12.081520
v -0.704010 5.912048 -12.081520
v 3.447010 5.912048 -12.081520
v -0.704010 5.912048 -12.149028
v 3.447010 5.912048 -12.149028
v -0.704010 0.684629 -12.149028
v 3.447010 0.684629 -12.149028
vt 0.375000 0.250000
vt 0.375000 0.000000
vt 0.625000 0.250000
vt 0.625000 0.000000
vt 0.375000 0.500000
vt 0.625000 0.500000
vt 0.375000 0.750000
vt 0.625000 0.750000
vt 0.375000 1.000000
vt 0.625000 1.000000
vt 0.875000 0.250000
vt 0.875000 0.000000
vt 0.125000 0.250000
vt 0.125000 0.000000
vn 0.000000 0.000000 1.000000
vn 0.000000 0.000000 1.000000
vn 0.000000 0.000000 1.000000
vn 0.000000 0.000000 1.000000
vn 0.000000 1.000000 0.000000
vn 0.000000 1.000000 0.000000
vn 0.000000 1.000000 0.000000
vn 0.000000 1.000000 0.000000
vn 0.000000 0.000000 -1.000000
vn 0.000000 0.000000 -1.000000
vn 0.000000 0.000000 -1.000000
vn 0.000000 0.000000 -1.000000
vn 0.000000 -1.000000 0.000000
vn 0.000000 -1.000000 0.000000
vn 0.000000 -1.000000 0.000000
vn 0.000000 -1.000000 0.000000
vn 1.000000 0.000000 0.000000
vn 1.000000 0.000000 0.000000
vn 1.000000 0.000000 0.000000
vn 1.000000 0.000000 0.000000
vn -1.000000 0.000000 0.000000
vn -1.000000 0.000000 0.000000
vn -1.000000 0.000000 0.000000
vn -1.000000 0.000000 0.000000
s 1
g polySurface145 polySurface389
usemtl lambert21SG
f 98/172/289 100/171/290 97/170/291
f 97/170/291 100/171/290 99/169/292
s 2
f 100/171/293 102/174/294 99/169/295
f 99/169/295 102/174/294 101/173/296
s 3
f 102/174/297 104/176/298 101/173/299
f 101/173/299 104/176/298 103/175/300
s 4
f 104/176/301 98/178/302 103/175/303
f 103/175/303 98/178/302 97/177/304
s 5
f 104/180/305 102/179/306 98/172/307
f 98/172/307 102/179/306 100/171/308
s 6
f 97/170/309 99/169/310 103/182/311
f 103/182/311 99/169/310 101/181/312
g default
v 11.884961 11.017788 -4.694049
v 11.884961 11.017788 0.113388
v 11.884961 14.808786 -4.694049
v 11.884961 14.808786 0.113388
v 12.069051 14.808786 -4.694049
v 12.069051 14.808786 0.113388
v 12.069051 11.017788 -4.694049
v 12.069051 11.017788 0.113388
vt 0.375000 0.250000
vt 0.375000 0.000000
vt 0.625000 0.250000
vt 0.625000 0.000000
vt 0.375000 0.500000
vt 0.625000 0.500000
vt 0.375000 0.750000
vt 0.625000 0.750000
vt 0.375000 1.000000
vt 0.625000 1.000000
vt 0.875000 0.250000
vt 0.875000 0.000000
vt 0.125000 0.250000
vt 0.125000 0.000000
vn -1.000000 0.000000 0.000000
vn -1.000000 0.000000 0.000000
vn -1.000000 0.000000 0.000000
vn -1.000000 0.000000 0.000000
vn 0.000000 1.000000 0.000000
vn 0.000000 1.000000 0.000000
vn 0.000000 1.000000 0.000000
vn 0.000000 1.000000 0.000000
vn 1.000000 0.000000 0.000000
vn 1.000000 0.000000 0.000000
vn 1.000000 0.000000 0.000000
vn 1.000000 0.000000 0.000000
vn 0.000000 -1.000000 0.000000
vn 0.000000 -1.000000 0.000000
vn 0.000000 -1.000000 0.000000
vn 0.000000 -1.000000 0.000000
vn 0.000000 0.000000 1.000000
vn 0.000000 0.000000 1.000000
vn 0.000000 0.000000 1.000000
vn 0.000000 0.000000 1.000000
vn 0.000000 0.000000 -1.000000
vn 0.000000 0.000000 -1.000000
vn 0.000000 0.000000 -1.000000
vn 0.000000 0.000000 -1.000000
s 1
g polySurface145 polySurface422
usemtl lambert21SG
f 106/186/313 108/185/314 105/184/315
f 105/184/315 108/185/314 107/183/316
s 2
f 108/185/317 110/188/318 107/183/319
f 107/183/319 110/188/318 109/187/320
s 3
f 110/188/321 112/190/322 109/187/323
f 109/187/323 112/190/322 111/189/324
s 4
f 112/190/325 106/192/326 111/189/327
f 111/189/327 106/192/326 105/191/328
s 5
f 112/194/329 110/193/330 106/186/331
f 106/186/331 110/193/330 108/185/332
s 6
f 105/184/333 107/183/334 111/196/335
f 111/196/335 107/183/334 109/195/336
