# This file uses centimeters as units for non-parametric coordinates.

mtllib foco.mtl
g default
v 0.734628 1.712821 -0.490862
v 0.816275 1.712821 -0.338110
v 0.866551 1.712821 -0.172367
v 0.883529 1.712821 0.000000
v 0.866551 1.712821 0.172367
v 0.816275 1.712821 0.338112
v 0.734628 1.712821 0.490862
v 0.624750 1.712822 0.624748
v 0.490862 1.712822 0.734628
v 0.338112 1.712822 0.816275
v 0.172369 1.712822 0.866551
v 0.000000 1.712822 0.883529
v -0.172367 1.712822 0.866551
v -0.338112 1.712822 0.816275
v -0.490862 1.712822 0.734628
v -0.624748 1.712822 0.624748
v -0.734628 1.712822 0.490862
v -0.816275 1.712822 0.338112
v -0.866551 1.712822 0.172369
v -0.883529 1.712822 0.000000
v -0.866551 1.712822 -0.172369
v -0.816275 1.712821 -0.338112
v -0.734628 1.712821 -0.490862
v -0.624748 1.712821 -0.624750
v -0.490862 1.712821 -0.734628
v -0.338112 1.712821 -0.816275
v -0.172367 1.712821 -0.866551
v 0.000000 1.712821 -0.883529
v 0.172369 1.712821 -0.866551
v 0.338112 1.712821 -0.816275
v 0.490862 1.712821 -0.734628
v 0.624750 1.712821 -0.624748
v 0.866551 1.728034 -0.172367
v 0.816275 1.728034 -0.338110
v 0.734628 1.728034 -0.490862
v 0.624750 1.728034 -0.624748
v 0.490862 1.728034 -0.734628
v 0.338112 1.728034 -0.816275
v 0.172369 1.728034 -0.866551
v 0.000000 1.728034 -0.883529
v -0.172367 1.728034 -0.866551
v -0.338112 1.728034 -0.816275
v -0.490862 1.728034 -0.734628
v -0.624748 1.728034 -0.624750
v -0.734628 1.728034 -0.490862
v -0.816275 1.728034 -0.338112
v -0.866551 1.728035 -0.172369
v -0.883529 1.728035 0.000000
v -0.866551 1.728035 0.172369
v -0.816275 1.728035 0.338112
v -0.734628 1.728035 0.490862
v -0.624748 1.728035 0.624748
v -0.490862 1.728035 0.734628
v -0.338112 1.728035 0.816275
v -0.172367 1.728035 0.866551
v 0.000000 1.728035 0.883529
v 0.172369 1.728035 0.866551
v 0.338112 1.728035 0.816275
v 0.490862 1.728035 0.734628
v 0.624750 1.728035 0.624748
v 0.734628 1.728034 0.490862
v 0.816275 1.728034 0.338112
v 0.866551 1.728034 0.172367
v 0.883529 1.728034 0.000000
vt 0.915700 0.222200
vt 0.961900 0.308700
vt 0.990400 0.402500
vt 1.000000 0.500000
vt 0.990400 0.597500
vt 0.961900 0.691300
vt 0.915700 0.777800
vt 0.853600 0.853600
vt 0.777800 0.915700
vt 0.691300 0.961900
vt 0.597500 0.990400
vt 0.500000 1.000000
vt 0.402500 0.990400
vt 0.308700 0.961900
vt 0.222200 0.915700
vt 0.146400 0.853600
vt 0.084300 0.777800
vt 0.038100 0.691300
vt 0.009600 0.597500
vt -0.000000 0.500000
vt 0.009600 0.402500
vt 0.038100 0.308700
vt 0.084300 0.222200
vt 0.146400 0.146400
vt 0.222200 0.084300
vt 0.308700 0.038100
vt 0.402500 0.009600
vt 0.500000 -0.000000
vt 0.597500 0.009600
vt 0.691300 0.038100
vt 0.777800 0.084300
vt 0.853600 0.146400
vt 0.990400 0.402500
vt 0.961900 0.308700
vt 0.915700 0.222200
vt 0.853600 0.146400
vt 0.777800 0.084300
vt 0.691300 0.038100
vt 0.597500 0.009600
vt 0.500000 -0.000000
vt 0.402500 0.009600
vt 0.308700 0.038100
vt 0.222200 0.084300
vt 0.146400 0.146400
vt 0.084300 0.222200
vt 0.038100 0.308700
vt 0.009600 0.402500
vt -0.000000 0.500000
vt 0.009600 0.597500
vt 0.038100 0.691300
vt 0.084300 0.777800
vt 0.146400 0.853600
vt 0.222200 0.915700
vt 0.308700 0.961900
vt 0.402500 0.990400
vt 0.500000 1.000000
vt 0.597500 0.990400
vt 0.691300 0.961900
vt 0.777800 0.915700
vt 0.853600 0.853600
vt 0.915700 0.777800
vt 0.961900 0.691300
vt 0.990400 0.597500
vt 1.000000 0.500000
vn 0.000000 -1.000000 0.000000
vn 0.000000 -1.000000 0.000000
vn -0.000000 -1.000000 0.000001
vn 0.000000 -1.000000 0.000000
vn 0.000000 -1.000000 0.000000
vn 0.000000 -1.000000 0.000000
vn 0.000000 -1.000000 0.000000
vn -0.000006 -1.000000 0.000001
vn -0.000001 -1.000000 0.000001
vn 0.000000 -1.000000 0.000001
vn 0.000000 -1.000000 0.000001
vn 0.000000 -1.000000 0.000001
vn -0.000000 -1.000000 0.000001
vn -0.000000 -1.000000 0.000000
vn -0.000000 -1.000000 0.000000
vn -0.000000 -1.000000 0.000000
vn -0.000000 -1.000000 0.000000
vn -0.000000 -1.000000 0.000000
vn -0.000000 -1.000000 0.000000
vn -0.000000 -1.000000 0.000000
vn -0.000001 -1.000000 0.000000
vn -0.000000 -1.000000 0.000002
vn 0.000001 -1.000000 0.000004
vn 0.000000 -1.000000 -0.000000
vn 0.000000 -1.000000 0.000000
vn 0.000000 -1.000000 0.000000
vn 0.000000 -1.000000 0.000000
vn 0.000000 -1.000000 -0.000000
vn 0.000000 -1.000000 0.000000
vn 0.000000 -1.000000 0.000000
vn 0.000000 -1.000000 0.000000
vn 0.000000 -1.000000 0.000000
vn 0.387138 0.918801 -0.077005
vn 0.364640 0.918819 -0.151029
vn 0.394728 0.918798 0.000000
vn 0.328192 0.918802 -0.219301
vn 0.279114 0.918799 -0.279114
vn 0.219301 0.918802 -0.328192
vn 0.151079 0.918793 -0.364684
vn 0.077005 0.918801 -0.387138
vn 0.000000 0.918798 -0.394728
vn -0.077005 0.918801 -0.387138
vn -0.151026 0.918800 -0.364687
vn -0.219301 0.918802 -0.328192
vn -0.279114 0.918799 -0.279114
vn -0.328192 0.918802 -0.219301
vn -0.364684 0.918793 -0.151079
vn -0.387138 0.918801 -0.077005
vn -0.394728 0.918798 0.000000
vn -0.387138 0.918801 0.077005
vn -0.364684 0.918793 0.151079
vn -0.328192 0.918802 0.219301
vn -0.279114 0.918799 0.279114
vn -0.219301 0.918802 0.328192
vn -0.151079 0.918793 0.364684
vn -0.077005 0.918801 0.387138
vn 0.000000 0.918798 0.394728
vn 0.077005 0.918801 0.387138
vn 0.151029 0.918819 0.364640
vn 0.219301 0.918802 0.328192
vn 0.279114 0.918799 0.279114
vn 0.328192 0.918802 0.219301
vn 0.364684 0.918793 0.151079
vn 0.387138 0.918801 0.077005
vn 0.364684 -0.918793 0.151079
vn 0.387138 -0.918801 0.077005
vn 0.364684 0.918793 0.151079
vn 0.387138 0.918801 0.077005
vn 0.328192 -0.918802 0.219301
vn 0.364684 -0.918793 0.151079
vn 0.328192 0.918802 0.219301
vn 0.364684 0.918793 0.151079
vn 0.279114 -0.918799 0.279114
vn 0.328192 -0.918802 0.219301
vn 0.279114 0.918799 0.279114
vn 0.328192 0.918802 0.219301
vn 0.219301 -0.918802 0.328192
vn 0.279114 -0.918799 0.279114
vn 0.219301 0.918802 0.328192
vn 0.279114 0.918799 0.279114
vn 0.151029 -0.918819 0.364640
vn 0.219301 -0.918802 0.328192
vn 0.151029 0.918819 0.364640
vn 0.219301 0.918802 0.328192
vn 0.077005 -0.918801 0.387138
vn 0.151029 -0.918819 0.364640
vn 0.077005 0.918801 0.387138
vn 0.151029 0.918819 0.364640
vn 0.000000 -0.918798 0.394728
vn 0.077005 -0.918801 0.387138
vn 0.000000 0.918798 0.394728
vn 0.077005 0.918801 0.387138
vn -0.077005 -0.918801 0.387138
vn 0.000000 -0.918798 0.394728
vn -0.077005 0.918801 0.387138
vn 0.000000 0.918798 0.394728
vn -0.151079 -0.918793 0.364684
vn -0.077005 -0.918801 0.387138
vn -0.151079 0.918793 0.364684
vn -0.077005 0.918801 0.387138
vn -0.219301 -0.918802 0.328192
vn -0.151079 -0.918793 0.364684
vn -0.219301 0.918802 0.328192
vn -0.151079 0.918793 0.364684
vn -0.279114 -0.918799 0.279114
vn -0.219301 -0.918802 0.328192
vn -0.279114 0.918799 0.279114
vn -0.219301 0.918802 0.328192
vn -0.328192 -0.918802 0.219301
vn -0.279114 -0.918799 0.279114
vn -0.328192 0.918802 0.219301
vn -0.279114 0.918799 0.279114
vn -0.364684 -0.918793 0.151079
vn -0.328192 -0.918802 0.219301
vn -0.364684 0.918793 0.151079
vn -0.328192 0.918802 0.219301
vn -0.387138 -0.918801 0.077005
vn -0.364684 -0.918793 0.151079
vn -0.387138 0.918801 0.077005
vn -0.364684 0.918793 0.151079
vn -0.394728 -0.918798 0.000000
vn -0.387138 -0.918801 0.077005
vn -0.394728 0.918798 0.000000
vn -0.387138 0.918801 0.077005
vn -0.387138 -0.918801 -0.077005
vn -0.394728 -0.918798 0.000000
vn -0.387138 0.918801 -0.077005
vn -0.394728 0.918798 0.000000
vn -0.364684 -0.918793 -0.151079
vn -0.387138 -0.918801 -0.077005
vn -0.364684 0.918793 -0.151079
vn -0.387138 0.918801 -0.077005
vn -0.328192 -0.918802 -0.219301
vn -0.364684 -0.918793 -0.151079
vn -0.328192 0.918802 -0.219301
vn -0.364684 0.918793 -0.151079
vn -0.279114 -0.918799 -0.279114
vn -0.328192 -0.918802 -0.219301
vn -0.279114 0.918799 -0.279114
vn -0.328192 0.918802 -0.219301
vn -0.219301 -0.918802 -0.328192
vn -0.279114 -0.918799 -0.279114
vn -0.219301 0.918802 -0.328192
vn -0.279114 0.918799 -0.279114
vn -0.151079 -0.918793 -0.364684
vn -0.219301 -0.918802 -0.328192
vn -0.151026 0.918800 -0.364687
vn -0.219301 0.918802 -0.328192
vn -0.077005 -0.918801 -0.387138
vn -0.151079 -0.918793 -0.364684
vn -0.077005 0.918801 -0.387138
vn -0.151026 0.918800 -0.364687
vn -0.000000 -0.918818 -0.394683
vn -0.077005 -0.918801 -0.387138
vn 0.000000 0.918798 -0.394728
vn -0.077005 0.918801 -0.387138
vn 0.077005 -0.918801 -0.387138
vn -0.000000 -0.918818 -0.394683
vn 0.077005 0.918801 -0.387138
vn 0.000000 0.918798 -0.394728
vn 0.151079 -0.918793 -0.364684
vn 0.077005 -0.918801 -0.387138
vn 0.151079 0.918793 -0.364684
vn 0.077005 0.918801 -0.387138
vn 0.219301 -0.918802 -0.328192
vn 0.151079 -0.918793 -0.364684
vn 0.219301 0.918802 -0.328192
vn 0.151079 0.918793 -0.364684
vn 0.279114 -0.918799 -0.279114
vn 0.219301 -0.918802 -0.328192
vn 0.279114 0.918799 -0.279114
vn 0.219301 0.918802 -0.328192
vn 0.328192 -0.918802 -0.219301
vn 0.279114 -0.918799 -0.279114
vn 0.328192 0.918802 -0.219301
vn 0.279114 0.918799 -0.279114
vn 0.364640 -0.918819 -0.151029
vn 0.328192 -0.918802 -0.219301
vn 0.364640 0.918819 -0.151029
vn 0.328192 0.918802 -0.219301
vn 0.387138 -0.918801 -0.077005
vn 0.364640 -0.918819 -0.151029
vn 0.387138 0.918801 -0.077005
vn 0.364640 0.918819 -0.151029
vn 0.387138 -0.918801 0.077005
vn 0.394683 -0.918818 0.000000
vn 0.387138 0.918801 0.077005
vn 0.394728 0.918798 0.000000
vn 0.394683 -0.918818 0.000000
vn 0.387138 -0.918801 -0.077005
vn 0.394728 0.918798 0.000000
vn 0.387138 0.918801 -0.077005
s 1
g x_Zolla_Lightstar:Object004
usemtl lambert2SG
f 1/1/1 2/2/2 32/32/3
f 2/2/2 3/3/4 32/32/3
f 3/3/4 4/4/5 32/32/3
f 4/4/5 5/5/6 32/32/3
f 5/5/6 6/6/7 32/32/3
f 6/6/7 7/7/8 32/32/3
f 7/7/8 8/8/9 32/32/3
f 8/8/9 9/9/10 32/32/3
f 9/9/10 10/10/11 32/32/3
f 10/10/11 11/11/12 32/32/3
f 11/11/12 12/12/13 32/32/3
f 12/12/13 13/13/14 32/32/3
f 13/13/14 14/14/15 32/32/3
f 14/14/15 15/15/16 32/32/3
f 15/15/16 16/16/17 32/32/3
f 16/16/17 17/17/18 32/32/3
f 17/17/18 18/18/19 32/32/3
f 18/18/19 19/19/20 32/32/3
f 19/19/20 20/20/21 32/32/3
f 20/20/21 21/21/22 32/32/3
f 21/21/22 22/22/23 32/32/3
f 22/22/23 23/23/24 32/32/3
f 23/23/24 24/24/25 32/32/3
f 24/24/25 25/25/26 32/32/3
f 25/25/26 26/26/27 32/32/3
f 26/26/27 27/27/28 32/32/3
f 27/27/28 28/28/29 32/32/3
f 28/28/29 29/29/30 32/32/3
f 29/29/30 30/30/31 32/32/3
f 30/30/31 31/31/32 32/32/3
s 2
f 33/33/33 34/34/34 64/64/35
f 35/35/36 36/36/37 34/34/34
f 37/37/38 38/38/39 36/36/37
f 39/39/40 40/40/41 38/38/39
f 41/41/42 42/42/43 40/40/41
f 43/43/44 44/44/45 42/42/43
f 45/45/46 46/46/47 44/44/45
f 47/47/48 48/48/49 46/46/47
f 49/49/50 50/50/51 48/48/49
f 51/51/52 52/52/53 50/50/51
f 53/53/54 54/54/55 52/52/53
f 55/55/56 56/56/57 54/54/55
f 57/57/58 58/58/59 56/56/57
f 59/59/60 60/60/61 58/58/59
f 61/61/62 62/62/63 60/60/61
f 63/63/64 64/64/35 62/62/63
f 34/34/34 36/36/37 64/64/35
f 38/38/39 40/40/41 36/36/37
f 42/42/43 44/44/45 40/40/41
f 46/46/47 48/48/49 44/44/45
f 50/50/51 52/52/53 48/48/49
f 54/54/55 56/56/57 52/52/53
f 58/58/59 60/60/61 56/56/57
f 62/62/63 64/64/35 60/60/61
f 36/36/37 40/40/41 64/64/35
f 44/44/45 48/48/49 40/40/41
f 52/52/53 56/56/57 48/48/49
f 60/60/61 64/64/35 56/56/57
f 40/40/41 48/48/49 64/64/35
f 48/48/49 56/56/57 64/64/35
s 10
f 6/6/65 5/5/66 62/62/67
f 62/62/67 5/5/66 63/63/68
s 11
f 7/7/69 6/6/70 61/61/71
f 61/61/71 6/6/70 62/62/72
s 12
f 8/8/73 7/7/74 60/60/75
f 60/60/75 7/7/74 61/61/76
s 13
f 9/9/77 8/8/78 59/59/79
f 59/59/79 8/8/78 60/60/80
s 14
f 10/10/81 9/9/82 58/58/83
f 58/58/83 9/9/82 59/59/84
s 15
f 11/11/85 10/10/86 57/57/87
f 57/57/87 10/10/86 58/58/88
s 16
f 12/12/89 11/11/90 56/56/91
f 56/56/91 11/11/90 57/57/92
s 17
f 13/13/93 12/12/94 55/55/95
f 55/55/95 12/12/94 56/56/96
s 18
f 14/14/97 13/13/98 54/54/99
f 54/54/99 13/13/98 55/55/100
s 19
f 15/15/101 14/14/102 53/53/103
f 53/53/103 14/14/102 54/54/104
s 20
f 16/16/105 15/15/106 52/52/107
f 52/52/107 15/15/106 53/53/108
s 21
f 17/17/109 16/16/110 51/51/111
f 51/51/111 16/16/110 52/52/112
s 22
f 18/18/113 17/17/114 50/50/115
f 50/50/115 17/17/114 51/51/116
s 23
f 19/19/117 18/18/118 49/49/119
f 49/49/119 18/18/118 50/50/120
s 24
f 20/20/121 19/19/122 48/48/123
f 48/48/123 19/19/122 49/49/124
s 25
f 21/21/125 20/20/126 47/47/127
f 47/47/127 20/20/126 48/48/128
s 26
f 22/22/129 21/21/130 46/46/131
f 46/46/131 21/21/130 47/47/132
s 27
f 23/23/133 22/22/134 45/45/135
f 45/45/135 22/22/134 46/46/136
s 28
f 24/24/137 23/23/138 44/44/139
f 44/44/139 23/23/138 45/45/140
s 29
f 25/25/141 24/24/142 43/43/143
f 43/43/143 24/24/142 44/44/144
s 30
f 26/26/145 25/25/146 42/42/147
f 42/42/147 25/25/146 43/43/148
s 31
f 27/27/149 26/26/150 41/41/151
f 41/41/151 26/26/150 42/42/152
s 32
f 28/28/153 27/27/154 40/40/155
f 40/40/155 27/27/154 41/41/156
s 33
f 29/29/157 28/28/158 39/39/159
f 39/39/159 28/28/158 40/40/160
s 34
f 30/30/161 29/29/162 38/38/163
f 38/38/163 29/29/162 39/39/164
s 35
f 31/31/165 30/30/166 37/37/167
f 37/37/167 30/30/166 38/38/168
s 36
f 32/32/169 31/31/170 36/36/171
f 36/36/171 31/31/170 37/37/172
s 37
f 1/1/173 32/32/174 35/35/175
f 35/35/175 32/32/174 36/36/176
s 38
f 2/2/177 1/1/178 34/34/179
f 34/34/179 1/1/178 35/35/180
s 39
f 3/3/181 2/2/182 33/33/183
f 33/33/183 2/2/182 34/34/184
s 40
f 5/5/185 4/4/186 63/63/187
f 63/63/187 4/4/186 64/64/188
s 41
f 4/4/189 3/3/190 64/64/191
f 64/64/191 3/3/190 33/33/192
